<svg width="16" height="80" viewBox="0 0 16 80" fill="none" xmlns="http://www.w3.org/2000/svg">
<g clip-path="url(#clip0_14_705)">
<path d="M13.0706 68.6632C13.0199 68.4645 12.8759 68.3145 12.7113 68.2685C12.4199 68.1865 10.9999 67.9998 7.99992 67.9998C4.99992 67.9998 3.58125 68.1865 3.28725 68.2685C3.12459 68.3138 2.98059 68.4638 2.92925 68.6632C2.85659 68.9458 2.66659 70.1305 2.66659 71.9998C2.66659 73.8692 2.85659 75.0532 2.92925 75.3372C2.97992 75.5352 3.12392 75.6852 3.28792 75.7305C3.58125 75.8132 4.99992 75.9998 7.99992 75.9998C10.9999 75.9998 12.4193 75.8132 12.7126 75.7312C12.8753 75.6858 13.0193 75.5358 13.0706 75.3365C13.1433 75.0538 13.3333 73.8665 13.3333 71.9998C13.3333 70.1332 13.1433 68.9465 13.0706 68.6632ZM14.3619 68.3318C14.6666 69.5198 14.6666 71.9998 14.6666 71.9998C14.6666 71.9998 14.6666 74.4798 14.3619 75.6678C14.1926 76.3245 13.6973 76.8412 13.0699 77.0158C11.9306 77.3332 7.99992 77.3332 7.99992 77.3332C7.99992 77.3332 4.07125 77.3332 2.92992 77.0158C2.29992 76.8385 1.80525 76.3225 1.63792 75.6678C1.33325 74.4798 1.33325 71.9998 1.33325 71.9998C1.33325 71.9998 1.33325 69.5198 1.63792 68.3318C1.80725 67.6752 2.30259 67.1585 2.92992 66.9838C4.07125 66.6665 7.99992 66.6665 7.99992 66.6665C7.99992 66.6665 11.9306 66.6665 13.0699 66.9838C13.6999 67.1612 14.1946 67.6772 14.3619 68.3318ZM6.66658 74.3332V69.6665L10.6666 71.9998L6.66658 74.3332Z" fill="#FA7436"/>
</g>
<g clip-path="url(#clip1_14_705)">
<path d="M7.99992 38.0002C7.46949 38.0002 6.96078 38.2109 6.5857 38.5859C6.21063 38.961 5.99992 39.4697 5.99992 40.0002C5.99992 40.5306 6.21063 41.0393 6.5857 41.4144C6.96078 41.7894 7.46949 42.0002 7.99992 42.0002C8.53035 42.0002 9.03906 41.7894 9.41413 41.4144C9.7892 41.0393 9.99992 40.5306 9.99992 40.0002C9.99992 39.4697 9.7892 38.961 9.41413 38.5859C9.03906 38.2109 8.53035 38.0002 7.99992 38.0002ZM7.99992 36.6668C8.88397 36.6668 9.73182 37.018 10.3569 37.6431C10.9821 38.2683 11.3333 39.1161 11.3333 40.0002C11.3333 40.8842 10.9821 41.7321 10.3569 42.3572C9.73182 42.9823 8.88397 43.3335 7.99992 43.3335C7.11586 43.3335 6.26802 42.9823 5.6429 42.3572C5.01777 41.7321 4.66658 40.8842 4.66658 40.0002C4.66658 39.1161 5.01777 38.2683 5.6429 37.6431C6.26802 37.018 7.11586 36.6668 7.99992 36.6668ZM12.3333 36.5002C12.3333 36.7212 12.2455 36.9331 12.0892 37.0894C11.9329 37.2457 11.7209 37.3335 11.4999 37.3335C11.2789 37.3335 11.0669 37.2457 10.9107 37.0894C10.7544 36.9331 10.6666 36.7212 10.6666 36.5002C10.6666 36.2791 10.7544 36.0672 10.9107 35.9109C11.0669 35.7546 11.2789 35.6668 11.4999 35.6668C11.7209 35.6668 11.9329 35.7546 12.0892 35.9109C12.2455 36.0672 12.3333 36.2791 12.3333 36.5002ZM7.99992 34.6668C6.35058 34.6668 6.08125 34.6715 5.31392 34.7055C4.79125 34.7302 4.44058 34.8002 4.11525 34.9268C3.82592 35.0388 3.61725 35.1728 3.39525 35.3955C3.18659 35.5971 3.02615 35.8432 2.92592 36.1155C2.79925 36.4422 2.72925 36.7922 2.70525 37.3142C2.67059 38.0502 2.66659 38.3075 2.66659 40.0002C2.66659 41.6495 2.67125 41.9188 2.70525 42.6862C2.72992 43.2082 2.79992 43.5595 2.92592 43.8842C3.03925 44.1742 3.17259 44.3828 3.39392 44.6042C3.61859 44.8282 3.82725 44.9622 4.11392 45.0728C4.44325 45.2002 4.79392 45.2708 5.31392 45.2948C6.04992 45.3295 6.30725 45.3335 7.99992 45.3335C9.64925 45.3335 9.91858 45.3288 10.6859 45.2948C11.2073 45.2702 11.5586 45.2002 11.8839 45.0742C12.1726 44.9615 12.3826 44.8275 12.6039 44.6062C12.8286 44.3815 12.9626 44.1728 13.0733 43.8862C13.1999 43.5575 13.2706 43.2062 13.2946 42.6862C13.3293 41.9502 13.3333 41.6928 13.3333 40.0002C13.3333 38.3508 13.3286 38.0815 13.2946 37.3142C13.2699 36.7928 13.1999 36.4408 13.0733 36.1155C12.9728 35.8435 12.8126 35.5975 12.6046 35.3955C12.4031 35.1867 12.1569 35.0263 11.8846 34.9262C11.5579 34.7995 11.2073 34.7295 10.6859 34.7055C9.94992 34.6708 9.69258 34.6668 7.99992 34.6668ZM7.99992 33.3335C9.81125 33.3335 10.0373 33.3402 10.7479 33.3735C11.4579 33.4068 11.9413 33.5182 12.3666 33.6835C12.8066 33.8528 13.1773 34.0822 13.5479 34.4522C13.8869 34.7854 14.1492 35.1886 14.3166 35.6335C14.4813 36.0582 14.5933 36.5422 14.6266 37.2522C14.6579 37.9628 14.6666 38.1888 14.6666 40.0002C14.6666 41.8115 14.6599 42.0375 14.6266 42.7482C14.5933 43.4582 14.4813 43.9415 14.3166 44.3668C14.1497 44.812 13.8873 45.2152 13.5479 45.5482C13.2146 45.887 12.8115 46.1493 12.3666 46.3168C11.9419 46.4815 11.4579 46.5935 10.7479 46.6268C10.0373 46.6582 9.81125 46.6668 7.99992 46.6668C6.18858 46.6668 5.96258 46.6602 5.25192 46.6268C4.54192 46.5935 4.05858 46.4815 3.63325 46.3168C3.18814 46.1498 2.78494 45.8875 2.45192 45.5482C2.11286 45.215 1.85054 44.8118 1.68325 44.3668C1.51792 43.9422 1.40659 43.4582 1.37325 42.7482C1.34192 42.0375 1.33325 41.8115 1.33325 40.0002C1.33325 38.1888 1.33992 37.9628 1.37325 37.2522C1.40659 36.5415 1.51792 36.0588 1.68325 35.6335C1.85008 35.1883 2.11245 34.785 2.45192 34.4522C2.78503 34.113 3.1882 33.8506 3.63325 33.6835C4.05858 33.5182 4.54125 33.4068 5.25192 33.3735C5.96258 33.3422 6.18858 33.3335 7.99992 33.3335Z" fill="#FA7436"/>
</g>
<g clip-path="url(#clip2_14_705)">
<path d="M10.1999 3.69991C9.69324 3.69983 9.20677 3.89866 8.8452 4.25362C8.48363 4.60859 8.27586 5.09131 8.2666 5.59791L8.24793 6.64791C8.24684 6.70429 8.23384 6.7598 8.20978 6.8108C8.18573 6.86179 8.15117 6.90713 8.10836 6.94383C8.06555 6.98053 8.01547 7.00777 7.96139 7.02375C7.90732 7.03974 7.85048 7.04411 7.7946 7.03658L6.75393 6.89525C5.3846 6.70858 4.0726 6.07791 2.81393 5.02925C2.41527 7.23591 3.19393 8.76458 5.06926 9.94391L6.23393 10.6759C6.28927 10.7107 6.33524 10.7585 6.36783 10.8151C6.40042 10.8718 6.41862 10.9356 6.42086 11.0009C6.4231 11.0662 6.4093 11.1311 6.38066 11.1898C6.35202 11.2486 6.30943 11.2994 6.2566 11.3379L5.19526 12.1132C5.8266 12.1526 6.42593 12.1246 6.92326 12.0259C10.0686 11.3979 12.1599 9.03125 12.1599 5.12725C12.1599 4.80858 11.4853 3.69991 10.1999 3.69991ZM6.93326 5.57325C6.9449 4.93061 7.14586 4.30569 7.51097 3.77673C7.87608 3.24776 8.38913 2.83826 8.98588 2.59949C9.58262 2.36072 10.2365 2.3033 10.8658 2.43441C11.495 2.56552 12.0715 2.87934 12.5233 3.33658C12.9973 3.33325 13.4006 3.45325 14.3026 2.90658C14.0793 3.99991 13.9693 4.47458 13.4933 5.12725C13.4933 10.2219 10.3619 12.6992 7.1846 13.3332C5.00593 13.7679 1.83793 13.0539 0.929932 12.1059C1.3926 12.0699 3.2726 11.8679 4.35926 11.0726C3.43993 10.4666 -0.219402 8.31325 2.18526 2.52391C3.31393 3.84191 4.4586 4.73925 5.6186 5.21525C6.3906 5.53191 6.57993 5.52525 6.93393 5.57391L6.93326 5.57325Z" fill="#FA7436"/>
</g>
<defs>
<clipPath id="clip0_14_705">
<rect width="16" height="16" fill="white" transform="translate(0 64)"/>
</clipPath>
<clipPath id="clip1_14_705">
<rect width="16" height="16" fill="white" transform="translate(0 32)"/>
</clipPath>
<clipPath id="clip2_14_705">
<rect width="16" height="16" fill="white"/>
</clipPath>
</defs>
</svg>
