<svg width="352" height="278" viewBox="0 0 352 278" fill="none" xmlns="http://www.w3.org/2000/svg">
<g opacity="0.3" clip-path="url(#clip0_16_1925)">
<path fill-rule="evenodd" clip-rule="evenodd" d="M262.391 100.824C263.472 97.1059 262.936 97.7772 269.547 96.2233C275.414 94.9791 273.379 96.8639 276.31 91.7296C278.9 87.0197 284.015 80.8659 285.962 77.2507C283.339 75.3228 268.758 72.4506 264.409 70.3274C265.022 69.3839 265.507 68.6222 266.198 67.6336C267.26 66.0695 266.909 66.2724 269.261 66.3341C274.355 66.3664 290.693 66.4431 293.728 66.1104C296.106 62.8356 302.022 53.4731 305.065 51.9577C306.503 51.2479 308.96 50.2978 309.553 52.3394C310.954 57.357 304.717 64.1588 301.066 69.2402C299.591 71.2837 300.056 70.8947 300.914 73.3726C301.773 76.0777 308.569 95.4449 308.314 96.7841C308.129 97.2526 306.112 99.9574 305.741 100.533C304.55 99.0779 303.358 97.3957 302.29 95.7488L295.708 86.356C294.781 84.7488 293.438 83.0326 292.309 81.6623C290.721 84.1192 289.045 86.3997 287.369 88.9073C279.058 101.313 278.922 96.2756 279.943 104.244C280.44 108.712 281.676 110.851 277.991 112.269C274.483 104.772 270.01 101.421 262.391 100.824ZM400.819 112.995C397.127 113.814 397.778 113.318 395.816 119.928C394.068 125.692 396.094 123.813 390.728 126.308C386.026 128.554 379.455 133.178 375.694 134.867C374.011 132.156 372.396 117.164 370.67 112.575C369.714 113.127 368.943 113.572 367.898 114.175C366.249 115.127 366.496 114.744 366.266 117.14C365.92 122.335 364.79 138.792 364.105 141.799C360.605 143.941 351.062 149.209 349.237 152.044C348.438 153.456 347.359 155.981 349.305 156.759C354.119 158.494 361.329 152.791 366.592 149.511C368.759 148.26 368.284 148.654 370.707 149.626C373.311 150.734 391.818 159.189 393.108 159.033C393.589 158.876 396.485 157.084 397.002 156.785C395.723 155.381 394.195 154.133 392.662 152.875L383.886 145.473C382.457 144.396 380.773 142.877 379.511 141.704C382.071 140.346 384.537 138.802 387.134 137.303C399.949 129.904 394.906 129.374 402.782 131.001C407.122 131.937 409.075 133.314 410.798 129.694C403.778 125.537 400.788 120.741 400.819 112.995ZM407.453 121.285C406.26 122.216 404.637 120.42 405.964 119.292L407.887 117.821C409.028 116.8 410.791 118.635 409.473 119.758L407.453 121.285ZM509.049 -127.502C508.918 -129.329 511.442 -129.353 511.556 -127.758L511.705 -126.304C511.784 -124.568 509.266 -124.534 509.234 -126.189L509.049 -127.502ZM509.825 -118.562C509.746 -120.298 512.212 -120.422 512.296 -118.676L512.471 -116.165C512.637 -114.48 510.119 -114.446 510.005 -116.04L509.825 -118.562ZM510.46 -108.468C510.346 -110.063 512.853 -110.318 512.931 -108.582L513.028 -106.026C513.142 -104.431 510.722 -104.227 510.504 -106.002L510.46 -108.468ZM510.727 -98.403C510.736 -100.19 513.271 -99.9924 513.251 -98.4271L513.259 -95.8203C513.25 -94.0335 510.803 -94.2816 510.829 -95.8369L510.727 -98.403ZM510.766 -88.3271C510.828 -90.0235 513.31 -89.9165 513.248 -88.2201L513.205 -85.7037C513.231 -84.058 510.661 -84.1143 510.722 -85.8107L510.766 -88.3271ZM510.499 -78.1951C510.525 -79.7503 513.043 -79.7844 512.982 -78.088L512.85 -75.5209C512.824 -73.9657 510.306 -73.9316 510.403 -75.7691L510.499 -78.1951ZM509.906 -68.2228C510.108 -69.8795 512.519 -69.4902 512.405 -67.8842L512.221 -65.4075C512.019 -63.7508 509.52 -64.0893 509.722 -65.746L509.906 -68.2228ZM509.007 -58.1944C509.209 -59.8511 511.62 -59.4618 511.428 -57.8107L511.156 -55.2833C510.954 -53.6266 508.491 -54.1063 508.745 -55.6726L509.007 -58.1944ZM507.837 -48.6123C508.362 -49.5051 509.721 -49.3385 510.153 -48.4095C510.548 -47.9278 510.531 -46.9667 509.968 -46.5213L509.791 -45.2272C509.537 -43.6609 507.038 -43.9994 507.318 -45.7012L507.337 -46.0739L506.944 -45.967C505.25 -45.6992 504.936 -48.2499 506.541 -48.467L507.837 -48.6123ZM506.043 -38.3083C506.466 -39.9861 508.806 -39.3145 508.48 -37.6931L508.022 -35.2857C507.654 -33.5332 505.258 -34.2795 505.637 -35.8105L506.043 -38.3083ZM504.003 -28.4518C504.345 -30.0689 506.854 -29.5088 506.44 -27.8367L505.895 -25.3786C505.553 -23.7615 503.131 -24.3723 503.457 -25.9937L504.003 -28.4518ZM501.631 -18.7652C502.185 -20.3976 504.551 -19.5002 504.033 -18.0089L503.435 -15.6412C502.933 -13.9183 500.567 -14.8157 500.945 -16.3468L501.631 -18.7652ZM498.891 -9.1072C499.367 -10.6946 501.759 -9.93264 501.293 -8.35091L500.519 -5.88177C500.053 -4.30004 497.599 -5.14674 498.153 -6.77918L498.891 -9.1072ZM495.783 0.295018C496.223 -1.15123 498.615 -0.389311 498.055 1.23309L497.229 3.61184C496.587 5.29501 494.292 4.11534 494.951 2.6637L495.783 0.295018ZM492.218 9.71928C492.912 8.12651 495.155 9.21578 494.496 10.6674L493.618 12.9557C492.924 14.5485 490.682 13.4593 491.34 12.0076L492.218 9.71928ZM488.363 18.8427C488.934 17.4418 491.3 18.3392 490.6 19.9219C490.25 20.7133 489.906 21.5147 489.503 22.2156C488.933 23.6166 486.567 22.7192 487.267 21.1364C487.607 20.3507 488.003 19.6397 488.363 18.8427ZM484.087 27.8471C484.834 26.3447 487.009 27.7005 486.289 29.0674L485.14 31.2707C484.394 32.7731 482.131 31.468 482.939 30.0504L484.087 27.8471ZM479.437 36.5856C480.148 35.2244 482.437 36.3939 481.603 37.947L480.314 40.1107C479.604 41.4719 477.315 40.3023 478.149 38.7492L479.437 36.5856ZM474.373 45.2151C475.347 43.7017 477.399 45.2494 476.548 46.5709L475.26 48.7345C474.321 50.1068 472.181 48.6099 473.032 47.2883L474.373 45.2151ZM469.012 53.5337C469.863 52.2122 472.038 53.568 471.151 55.0306C470.615 55.7019 470.213 56.4029 469.676 57.0742C468.826 58.3958 466.738 56.9892 467.677 55.617C468.079 54.916 468.615 54.2447 469.012 53.5337ZM463.334 61.6869C464.413 60.3544 466.289 62.0034 465.386 63.2346L463.911 65.2782C462.832 66.6107 460.91 64.8813 461.947 63.6798L463.334 61.6869ZM457.356 69.5449C458.346 68.2631 460.31 69.8614 459.32 71.1433L457.705 73.1472C456.802 74.3783 454.75 72.8307 455.829 71.4981L457.356 69.5449ZM451.049 77.2175C452.092 76.026 454.056 77.6244 452.925 78.8666C452.389 79.5379 451.847 80.1991 451.258 80.78C450.355 82.0112 448.391 80.4128 449.47 79.0802C450.012 78.419 450.513 77.8888 451.049 77.2175ZM444.452 84.5892C445.722 83.3867 447.381 85.2683 446.292 86.3794L444.573 88.2025C443.39 89.3542 441.643 87.5234 442.82 86.3615L444.452 84.5892ZM437.615 91.7504C438.793 90.5886 440.545 92.4295 439.368 93.5913L437.596 95.324C436.501 96.4251 434.667 94.6449 435.844 93.4831L437.615 91.7504ZM430.492 98.5951C431.588 97.4941 433.51 99.2235 432.297 100.526L430.386 102.219C429.068 103.342 427.517 101.264 428.721 100.328L430.492 98.5951ZM423.255 105.265C424.485 104.193 426.062 106.136 424.832 107.207L422.956 108.759C421.639 109.881 420.062 107.939 421.291 106.867L423.255 105.265ZM415.649 111.678C416.879 110.607 418.543 112.499 417.226 113.621L415.35 115.173C414.121 116.244 412.404 114.262 413.721 113.14L415.649 111.678ZM654.204 -141.073C655.295 -144.797 654.748 -144.12 661.407 -145.593C667.221 -146.928 665.238 -144.953 668.117 -150.177C670.76 -154.797 675.822 -161.041 677.769 -164.656C675.156 -166.59 660.565 -169.456 656.216 -171.579C656.829 -172.523 657.366 -173.194 658.057 -174.183C659.067 -175.837 658.716 -175.635 661.074 -175.563C666.168 -175.53 682.548 -175.358 685.541 -175.787C687.919 -179.061 693.835 -188.424 696.878 -189.939C698.316 -190.649 700.826 -191.509 701.419 -189.467C702.819 -184.449 696.582 -177.648 692.931 -172.566C691.456 -170.523 691.869 -171.002 692.727 -168.524C693.648 -165.734 700.382 -146.452 700.127 -145.113C700.02 -144.689 697.977 -141.849 697.554 -141.364C696.363 -142.819 695.213 -144.405 694.155 -146.058L687.521 -155.541C686.646 -157.058 685.251 -158.864 684.174 -160.144C682.54 -157.768 680.91 -155.407 679.182 -152.99C670.871 -140.584 670.822 -145.672 671.756 -137.653C672.253 -133.185 673.577 -131.096 669.804 -129.628C666.296 -137.125 661.817 -140.486 654.204 -141.073ZM661.804 -133.702C662.847 -134.893 661.147 -136.644 659.876 -135.441L658.297 -133.579C657.295 -132.518 658.954 -130.637 660.225 -131.839L661.804 -133.702ZM408.542 -51.4068C406.851 -51.7432 406.673 -49.2564 408.218 -48.9698L409.498 -48.7581C411.277 -48.4725 411.455 -50.9592 409.904 -51.2559L408.542 -51.4068ZM417.345 -49.9536C415.706 -50.1995 415.388 -47.7524 416.939 -47.4558L419.49 -47.0268C421.129 -46.7808 421.395 -49.3183 419.762 -49.5542L417.345 -49.9536ZM427.185 -48.5091C425.634 -48.8058 425.228 -46.308 426.913 -45.9817L429.412 -45.6432C430.998 -45.4876 431.404 -47.9854 429.678 -48.1806L427.185 -48.5091ZM437.101 -47.3369C435.375 -47.5322 435.373 -44.9198 436.917 -44.8602L439.452 -44.6628C441.178 -44.4675 441.174 -47.09 439.636 -47.1395L437.101 -47.3369ZM447.037 -46.5374C445.363 -46.6422 445.309 -44.1202 446.905 -43.9703L449.388 -43.8632C451.062 -43.7584 451.24 -46.2452 449.566 -46.35L447.037 -46.5374ZM456.946 -45.9637C455.412 -46.0289 455.228 -43.5521 456.99 -43.498L459.473 -43.391C461.007 -43.3258 461.191 -45.8026 459.516 -45.9074L456.946 -45.9637ZM466.968 -45.8034C465.171 -45.7164 465.433 -43.2561 466.977 -43.1966L469.495 -43.2306C471.205 -43.2669 471.03 -45.7779 469.399 -45.7868L466.968 -45.8034ZM476.834 -45.9142C475.176 -45.7875 475.438 -43.3272 477.008 -43.4032L479.532 -43.4272C481.19 -43.5539 481.015 -46.065 479.358 -45.9383L476.834 -45.9142ZM486.806 -46.4485C485.149 -46.3218 485.323 -43.8108 487.043 -43.8527L489.462 -44.0575C491.032 -44.1335 490.998 -46.6048 489.288 -46.5685L486.806 -46.4485ZM496.618 -47.2382C494.925 -46.9704 495.415 -44.5211 497.021 -44.7382L499.528 -44.9938C501.133 -45.2109 500.731 -47.7109 499.126 -47.4938L496.618 -47.2382ZM516.263 -50.0217C514.534 -49.6128 515.34 -47.2252 516.753 -47.5724L519.244 -48.0595C520.973 -48.4684 520.167 -50.856 518.754 -50.5088L516.263 -50.0217ZM525.946 -52.0494C524.392 -51.7419 525.023 -49.253 526.576 -49.5605L529.014 -50.138C530.609 -50.5765 529.979 -53.0655 528.384 -52.6269L525.946 -52.0494ZM535.508 -54.4895C534.094 -54.1423 534.491 -51.6524 536.226 -52.0513L538.612 -52.7192C540.377 -53.2692 539.349 -55.6357 537.894 -55.1574L535.508 -54.4895ZM544.997 -57.2359C543.454 -56.7069 544.348 -54.3701 545.803 -54.8483L548.225 -55.6574C549.767 -56.1863 548.961 -58.5739 547.429 -58.0505L544.997 -57.2359ZM554.328 -60.4805C552.874 -60.0023 553.592 -57.564 555.274 -58.0533C556.019 -58.363 556.905 -58.633 557.644 -58.9528C559.099 -59.431 558.381 -61.8693 556.698 -61.38C555.959 -61.0602 555.126 -60.6998 554.328 -60.4805ZM563.582 -64.0415C562.003 -63.3714 563.115 -61.04 564.553 -61.7498L566.789 -62.6789C568.367 -63.349 567.255 -65.6804 565.817 -64.9706L563.582 -64.0415ZM572.589 -68.0501C571.151 -67.3403 572.123 -65.0486 573.701 -65.7187L575.972 -66.7889C577.375 -67.3575 576.429 -69.7848 574.773 -69.0696L572.589 -68.0501ZM581.431 -72.3243C579.905 -71.5638 581.28 -69.3845 582.578 -70.134L584.797 -71.2946C586.323 -72.0551 585.036 -74.2851 583.65 -73.4849L581.431 -72.3243ZM590.114 -77.0967C588.728 -76.2966 589.928 -74.0158 591.402 -74.8668C592.095 -75.2668 592.876 -75.7177 593.569 -76.1178C594.867 -76.8672 593.755 -79.1987 592.281 -78.3478C591.491 -77.8913 590.807 -77.4968 590.114 -77.0967ZM598.58 -82.2252C597.122 -81.1428 598.621 -79.1553 599.955 -80.0459L601.982 -81.3366C603.403 -82.278 601.94 -84.4065 600.606 -83.5159L598.58 -82.2252ZM606.806 -87.5642C605.472 -86.6736 606.936 -84.545 608.269 -85.4356L610.332 -86.8674C611.665 -87.758 610.202 -89.8866 608.869 -88.996L606.806 -87.5642ZM614.834 -93.2703C613.588 -92.4305 614.963 -90.2512 616.333 -91.2829C616.973 -91.7734 617.702 -92.3146 618.343 -92.8051C619.589 -93.645 618.213 -95.8243 616.844 -94.7926C616.203 -94.3021 615.562 -93.8116 614.834 -93.2703ZM622.649 -99.3225C621.331 -98.2003 623.078 -96.3695 624.225 -97.3801L626.245 -98.908C627.423 -100.07 625.758 -101.961 624.616 -100.941L622.649 -99.3225ZM630.264 -105.742C629.035 -104.67 630.658 -102.648 631.893 -103.709L633.805 -105.402C634.947 -106.423 633.37 -108.365 632.14 -107.294L630.264 -105.742ZM637.6 -112.241C636.406 -111.31 638.03 -109.288 639.353 -110.4L641.124 -112.132C642.389 -113.345 640.467 -115.074 639.372 -113.973L637.6 -112.241ZM644.671 -119.176C643.54 -117.934 645.38 -116.143 646.511 -117.385L648.283 -119.118C649.466 -120.27 647.625 -122.06 646.442 -120.908L644.671 -119.176ZM651.647 -126.297C650.464 -125.145 652.269 -123.214 653.487 -124.507L655.119 -126.279C656.214 -127.38 654.549 -129.272 653.279 -128.07L651.647 -126.297ZM270.001 108.189C271.044 106.998 269.344 105.247 268.073 106.45L266.494 108.313C265.492 109.373 267.063 111.305 268.37 109.962L270.001 108.189ZM16.6862 190.394C15.0476 190.148 14.7818 192.686 16.3682 192.841L17.7008 193.143C19.4795 193.429 19.6052 190.852 18.1067 190.645L16.6862 190.394ZM25.4897 191.847C23.8414 191.607 23.5853 194.139 25.1303 194.425L27.6389 194.758C29.2775 195.004 29.6053 192.552 27.9569 192.311L25.4897 191.847ZM35.3814 193.382C33.8307 193.085 33.4248 195.583 35.0634 195.829L37.5623 196.168C39.2009 196.414 39.6068 193.916 37.8339 193.64L35.3814 193.382ZM45.2458 194.464C43.5716 194.359 43.518 196.881 45.1142 197.031L47.5609 197.279C49.323 197.333 49.3708 194.801 47.6925 194.712L45.2458 194.464ZM55.2239 195.359C53.5497 195.255 53.5059 197.771 55.0923 197.927L57.5747 198.034C59.2489 198.139 59.2967 195.606 57.7063 195.467L55.2239 195.359ZM65.1431 195.928C63.5469 195.778 63.369 198.264 65.0896 198.45L67.6598 198.506C69.1062 198.622 69.3779 196.094 67.5636 195.95L65.1431 195.928ZM75.0774 196.139C73.3675 196.175 73.6297 198.635 75.1117 198.61L77.682 198.666C79.3397 198.54 79.1653 196.028 77.5857 196.11L75.0774 196.139ZM85.021 195.983C83.3633 196.109 83.4856 198.53 85.2052 198.488L87.6768 198.374C89.3867 198.337 89.0723 195.787 87.5024 195.863L85.021 195.983ZM94.9935 195.448C93.3358 195.575 93.5102 198.086 95.1679 197.959L97.6395 197.845C99.2094 197.769 99.1131 195.213 97.4651 195.334L94.9935 195.448ZM104.815 194.653C103.122 194.921 103.612 197.37 105.217 197.153L107.637 196.948C109.33 196.68 108.876 194.09 107.323 194.397L104.815 194.653ZM114.682 193.349C113.076 193.567 113.401 196.112 115.136 195.94L117.539 195.503C119.145 195.286 118.742 192.786 117.137 193.004L114.682 193.349ZM124.398 191.785C122.669 192.194 123.521 194.662 124.94 194.324L127.431 193.837C129.16 193.428 128.354 191.041 126.889 191.298L124.398 191.785ZM134.133 189.847C132.492 190.206 133.204 192.634 134.711 192.246L137.149 191.668C138.79 191.31 138.16 188.821 136.571 189.27L134.133 189.847ZM143.695 187.407C142.281 187.755 142.684 190.255 144.413 189.846L146.799 189.178C148.564 188.628 147.546 186.256 146.081 186.739L143.695 187.407ZM153.147 184.575C151.605 185.104 152.551 187.531 154.005 187.053L156.427 186.244C157.97 185.715 157.086 183.372 155.534 183.907L153.147 184.575ZM162.515 181.416C161.061 181.895 161.769 184.338 163.409 183.753C164.207 183.534 164.952 183.224 165.831 182.944C167.146 182.426 166.516 179.937 164.885 180.517C164.058 180.887 163.261 181.107 162.515 181.416ZM171.778 177.85C170.2 178.52 171.26 180.761 172.75 180.141L174.986 179.212C176.564 178.542 175.452 176.211 174.014 176.921L171.778 177.85ZM180.776 173.847C179.286 174.466 180.32 176.843 181.888 176.178L184.159 175.108C185.51 174.449 184.626 172.106 182.96 172.827L180.776 173.847ZM189.575 169.477C188.101 170.327 189.477 172.507 190.775 171.757L192.994 170.597C194.468 169.746 193.232 167.606 191.794 168.316L189.575 169.477ZM198.301 164.8C196.915 165.6 198.063 167.791 199.589 167.03C200.282 166.63 201.063 166.179 201.756 165.779C203.054 165.03 201.942 162.698 200.468 163.549C199.687 164 198.994 164.4 198.301 164.8ZM206.767 159.672C205.257 160.664 206.808 162.742 208.142 161.851L210.169 160.56C211.59 159.619 210.127 157.49 208.793 158.381L206.767 159.672ZM215.003 154.327C213.669 155.218 215.045 157.397 216.414 156.365L218.476 154.933C219.81 154.043 218.399 152.005 217.065 152.895L215.003 154.327ZM222.969 148.536C221.775 149.466 223.15 151.646 224.52 150.614C225.16 150.123 225.889 149.582 226.53 149.092C227.776 148.252 226.4 146.073 225.031 147.104C224.39 147.595 223.749 148.085 222.969 148.536ZM230.845 142.569C229.528 143.691 231.285 145.516 232.422 144.511L234.386 142.909C235.615 141.837 233.951 139.945 232.809 140.966L230.845 142.569ZM238.461 136.149C237.232 137.221 238.803 139.153 240.038 138.092L241.992 136.495C243.134 135.474 241.51 133.451 240.275 134.513L238.461 136.149ZM245.735 129.566C244.593 130.587 246.217 132.609 247.488 131.407L249.311 129.764C250.53 128.472 248.648 126.812 247.559 127.924L245.735 129.566ZM252.868 122.716C251.737 123.958 253.525 125.658 254.62 124.556L256.48 122.773C257.611 121.531 255.822 119.831 254.639 120.983L252.868 122.716ZM259.762 115.655C258.667 116.756 260.419 118.597 261.602 117.445L263.322 115.622C264.417 114.521 262.7 112.539 261.481 113.832L259.762 115.655Z" fill="#CCCCCC"/>
</g>
<defs>
<clipPath id="clip0_16_1925">
<rect width="331" height="129" fill="white" transform="translate(351.154 111.717) rotate(150)"/>
</clipPath>
</defs>
</svg>
