<svg width="178" height="177" viewBox="0 0 178 177" fill="none" xmlns="http://www.w3.org/2000/svg">
<g clip-path="url(#clip0_21_365)">
<path d="M3.96343 34.7545L123.317 4.70411C123.95 4.54459 124.637 4.63855 125.166 5.02154C126.322 5.85872 126.307 7.47251 125.363 8.33598L101.299 30.3348C101.296 30.3369 101.295 30.3401 101.295 30.3436L105.693 75.1846C105.838 76.7401 104.253 77.9551 102.789 77.3862L70.7381 64.914C70.7345 64.9125 70.7303 64.9133 70.7272 64.9161L54.1288 80.3633C53.3371 81.0996 52.0828 81.1202 51.2679 80.4104L23.6783 56.3906C22.7876 55.6151 22.6942 54.2641 23.4697 53.3733C24.2454 52.4823 25.5957 52.3894 26.4869 53.1648L52.6174 75.9149C52.6214 75.9182 52.6273 75.9182 52.6311 75.9146L85.7327 45.1088C85.7394 45.1028 85.7354 45.0917 85.7264 45.0908L10.7626 39.4504C10.7527 39.4496 10.7476 39.462 10.7551 39.4684L18.564 46.2667C19.452 47.0396 19.6333 48.4008 18.8827 49.3075C18.1129 50.2373 16.7349 50.3448 15.8302 49.5578L3.06561 38.445C2.98578 38.375 2.90965 38.2965 2.84071 38.2149C1.82333 37.0179 2.45285 35.1348 3.96343 34.7545ZM74.2215 61.6641C74.216 61.6693 74.2179 61.6788 74.225 61.6814L99.7359 71.6084C99.7443 71.6115 99.7525 71.6033 99.7492 71.5948L89.9622 47.0345C89.9597 47.0278 89.951 47.0259 89.9454 47.0308L74.2215 61.6641ZM32.652 36.8081L90.9471 41.1943C91.7511 41.256 92.4744 41.7851 92.7733 42.5351L99.9361 60.5097C99.9407 60.5209 99.9572 60.5167 99.956 60.505L97.1394 31.7864C97.1388 31.7806 97.134 31.7766 97.1283 31.7771L32.652 36.7873C32.6393 36.7882 32.6394 36.8069 32.652 36.8081ZM29.5833 32.7357L98.159 27.407C98.1613 27.4067 98.1634 27.4059 98.1651 27.4043L116.186 10.9302C116.194 10.9229 116.187 10.9097 116.177 10.9123L29.58 32.7154C29.5676 32.7185 29.5707 32.7368 29.5833 32.7357Z" fill="#FFE4C0"/>
<path d="M124.504 92.6622C125.088 92.5243 125.686 92.3988 126.282 92.2893C127.444 92.0755 128.558 92.8435 128.773 94.0051C128.978 95.1203 128.278 96.1929 127.194 96.4659C127.149 96.4772 127.103 96.4872 127.057 96.4956C126.53 96.5928 126.001 96.7035 125.486 96.8251C124.336 97.0963 123.184 96.3842 122.913 95.235C122.642 94.0857 123.358 92.9257 124.504 92.6622Z" fill="#FFE4C0"/>
<path d="M114.68 96.6903C115.668 96.0704 116.724 95.4946 117.819 94.9789C118.887 94.4751 120.161 94.9335 120.665 96.0022C121.168 97.0704 120.71 98.3449 119.642 98.8484C118.701 99.2914 117.797 99.7844 116.954 100.313C115.966 100.933 114.625 100.626 114.006 99.6388C113.378 98.638 113.681 97.3179 114.68 96.6903Z" fill="#FFE4C0"/>
<path d="M141.104 110.447C141.028 109.461 140.877 108.462 140.653 107.479C140.391 106.327 141.116 105.182 142.264 104.919C143.416 104.657 144.562 105.379 144.824 106.531C145.093 107.717 145.277 108.925 145.369 110.119C145.458 111.28 144.563 112.326 143.401 112.415C142.223 112.506 141.195 111.625 141.104 110.447Z" fill="#FFE4C0"/>
<path d="M134.212 125.802C135.01 125.27 135.762 124.654 136.445 123.969C137.28 123.133 138.634 123.132 139.47 123.967C140.305 124.801 140.306 126.155 139.472 126.991C138.588 127.876 137.617 128.673 136.583 129.362C135.56 130.042 134.136 129.699 133.534 128.631C132.991 127.669 133.293 126.414 134.212 125.802Z" fill="#FFE4C0"/>
<path d="M121.077 85.0029C121.563 83.9265 122.83 83.4481 123.906 83.934C124.962 84.4106 126.012 84.9354 127.026 85.4944C128.06 86.064 128.437 87.3645 127.868 88.3991C127.306 89.4193 125.984 89.8027 124.963 89.2407C124.048 88.7365 123.1 88.2624 122.146 87.8322C121.07 87.3459 120.591 86.0795 121.077 85.0029Z" fill="#FFE4C0"/>
<path d="M139.698 119.158C140.086 118.268 140.403 117.328 140.639 116.364C140.92 115.217 142.078 114.515 143.225 114.795C144.372 115.076 145.074 116.234 144.793 117.381C144.499 118.582 144.104 119.756 143.617 120.869C143.115 122.022 141.679 122.494 140.589 121.867C139.657 121.33 139.268 120.143 139.698 119.158Z" fill="#FFE4C0"/>
<path d="M137.262 96.3462C138.203 95.632 139.544 95.8157 140.258 96.7562C141.046 97.7928 141.738 98.834 142.261 99.766C142.839 100.796 142.473 102.099 141.443 102.678C141.274 102.772 141.097 102.842 140.918 102.887C140.004 103.117 139.015 102.72 138.532 101.859C138.233 101.327 137.699 100.458 136.852 99.3422C136.138 98.4017 136.321 97.0603 137.262 96.3462Z" fill="#FFE4C0"/>
<path d="M129.847 89.7029C130.573 88.7709 131.917 88.6043 132.848 89.3305C133.766 90.0455 134.663 90.8044 135.515 91.586C136.385 92.3846 136.443 93.7374 135.645 94.6076C134.856 95.4669 133.482 95.5248 132.623 94.7374C131.856 94.0334 131.047 93.3494 130.22 92.7047C129.288 91.9785 129.121 90.6346 129.847 89.7029Z" fill="#FFE4C0"/>
<path d="M106.986 104.412C107.587 103.362 108.313 102.341 109.144 101.377C109.915 100.483 111.266 100.383 112.16 101.155C113.055 101.926 113.154 103.276 112.383 104.171C111.73 104.928 111.163 105.724 110.697 106.537C110.118 107.549 108.79 107.909 107.779 107.33C106.754 106.743 106.399 105.437 106.986 104.412Z" fill="#FFE4C0"/>
<path d="M123.867 130.546C123.825 129.366 124.747 128.376 125.928 128.333C126.839 128.301 127.775 128.195 128.714 128.019L128.877 127.988C130.035 127.757 131.162 128.508 131.393 129.667C131.617 130.79 130.918 131.882 129.82 132.159C129.785 132.167 129.75 132.175 129.715 132.182L129.5 132.224C128.355 132.439 127.204 132.568 126.08 132.608C124.899 132.649 123.909 131.727 123.867 130.546Z" fill="#FFE4C0"/>
<path d="M105.024 115.436C104.806 114.155 104.73 112.882 104.798 111.652C104.864 110.473 105.873 109.569 107.052 109.635C108.231 109.701 109.134 110.71 109.069 111.889C109.018 112.8 109.076 113.752 109.241 114.718C109.436 115.867 108.64 116.99 107.491 117.186C106.343 117.381 105.22 116.585 105.024 115.436Z" fill="#FFE4C0"/>
<path d="M108.35 119.425C109.367 118.825 110.678 119.162 111.279 120.178C111.78 121.025 112.356 121.834 112.992 122.584C113.757 123.484 113.646 124.833 112.746 125.598C111.857 126.353 110.486 126.239 109.732 125.351C108.939 124.417 108.221 123.409 107.597 122.354C106.996 121.338 107.333 120.026 108.35 119.425Z" fill="#FFE4C0"/>
<path d="M111.458 82.4695C111.684 81.3098 112.807 80.5534 113.966 80.7795C115.104 81.0012 116.244 81.2682 117.354 81.5731C118.24 81.8163 118.885 82.626 118.924 83.5441C118.967 84.5463 118.28 85.4652 117.308 85.71C116.962 85.7971 116.589 85.7987 116.221 85.6975C115.215 85.4211 114.181 85.1788 113.148 84.9776C111.989 84.7516 111.232 83.6286 111.458 82.4695Z" fill="#FFE4C0"/>
<path d="M114.582 127.134C115.162 126.105 116.466 125.74 117.495 126.32C118.344 126.798 119.24 127.198 120.158 127.509C121.276 127.888 121.876 129.102 121.497 130.22C121.123 131.324 119.889 131.934 118.785 131.56C117.617 131.164 116.476 130.655 115.396 130.046C114.367 129.467 114.003 128.163 114.582 127.134Z" fill="#FFE4C0"/>
<path d="M103.097 81.9981C103.114 80.8176 104.086 79.8746 105.266 79.8908C105.863 79.8995 106.464 79.9185 107.051 79.9471C108.17 80.0023 109.076 80.9485 109.084 82.0683C109.093 83.2801 108.051 84.278 106.84 84.219C106.302 84.1924 105.752 84.175 105.205 84.1671C104.024 84.1501 103.08 83.179 103.097 81.9981Z" fill="#FFE4C0"/>
<path d="M167.428 140.631C167.551 140.105 167.665 139.57 167.766 139.042C167.989 137.882 169.11 137.122 170.269 137.345C171.429 137.567 172.189 138.688 171.967 139.848C171.854 140.433 171.729 141.024 171.592 141.605C171.327 142.74 170.159 143.466 169.023 143.201C167.873 142.932 167.159 141.782 167.428 140.631Z" fill="#FFE4C0"/>
<path d="M168.438 133.021C168.468 132.012 168.456 130.996 168.403 129.998C168.339 128.819 169.243 127.812 170.423 127.748C171.602 127.684 172.61 128.589 172.673 129.768C172.734 130.885 172.747 132.022 172.713 133.15C172.678 134.314 171.676 135.258 170.511 135.222C169.33 135.187 168.402 134.201 168.438 133.021Z" fill="#FFE4C0"/>
<path d="M168.15 118.422C169.273 118.065 170.479 118.681 170.84 119.806C171.096 120.605 171.33 121.423 171.535 122.236C171.723 122.982 171.932 123.701 171.595 124.437C171.321 125.034 170.772 125.487 170.128 125.631C169.49 125.777 168.809 125.618 168.302 125.205C167.687 124.706 167.571 124.008 167.387 123.28C167.205 122.555 166.996 121.826 166.767 121.112C166.406 119.987 167.026 118.783 168.15 118.422Z" fill="#FFE4C0"/>
<path d="M163.624 109.959C164.627 109.332 165.945 109.637 166.571 110.638C167.167 111.591 167.73 112.578 168.244 113.57C168.787 114.619 168.376 115.909 167.327 116.452C166.292 116.988 164.981 116.57 164.445 115.536C163.984 114.646 163.48 113.761 162.945 112.906C162.319 111.904 162.623 110.585 163.624 109.959Z" fill="#FFE4C0"/>
<path d="M149.235 97.4771C149.818 96.4492 151.122 96.088 152.15 96.6698C152.413 96.8186 152.676 96.9716 152.938 97.1277C153.639 97.5471 154.342 98.0002 155.027 98.4748C155.997 99.1472 156.239 100.479 155.567 101.45C154.904 102.408 153.549 102.654 152.592 101.991C151.985 101.571 151.363 101.17 150.743 100.799C150.511 100.66 150.277 100.524 150.043 100.392C149.015 99.8095 148.654 98.5047 149.235 97.4771Z" fill="#FFE4C0"/>
<path d="M157.21 102.816C158.035 101.971 159.388 101.954 160.234 102.778C161.035 103.558 161.815 104.383 162.553 105.227C163.33 106.116 163.24 107.467 162.35 108.244C161.472 109.012 160.099 108.918 159.333 108.041C158.669 107.282 157.968 106.541 157.248 105.84C156.403 105.015 156.386 103.661 157.21 102.816Z" fill="#FFE4C0"/>
<path d="M141.597 94.731C141.937 93.6002 143.129 92.9587 144.26 93.2983C144.835 93.471 145.414 93.6601 145.982 93.8602C147.096 94.2536 147.68 95.4747 147.287 96.5885C146.899 97.687 145.658 98.2814 144.559 97.8936C144.055 97.7159 143.541 97.5478 143.03 97.3945C141.898 97.0546 141.257 95.8621 141.597 94.731Z" fill="#FFE4C0"/>
</g>
<defs>
<clipPath id="clip0_21_365">
<rect width="145.698" height="145.698" fill="white" transform="matrix(-0.969736 0.244157 0.244157 0.969736 142 0)"/>
</clipPath>
</defs>
</svg>
