<svg width="16" height="16" viewBox="0 0 16 16" fill="none" xmlns="http://www.w3.org/2000/svg">
<g clip-path="url(#clip0_203_1121)">
<path d="M7.99992 6.00016C7.46949 6.00016 6.96078 6.21088 6.5857 6.58595C6.21063 6.96102 5.99992 7.46973 5.99992 8.00016C5.99992 8.5306 6.21063 9.0393 6.5857 9.41438C6.96078 9.78945 7.46949 10.0002 7.99992 10.0002C8.53035 10.0002 9.03906 9.78945 9.41413 9.41438C9.7892 9.0393 9.99992 8.5306 9.99992 8.00016C9.99992 7.46973 9.7892 6.96102 9.41413 6.58595C9.03906 6.21088 8.53035 6.00016 7.99992 6.00016ZM7.99992 4.66683C8.88397 4.66683 9.73182 5.01802 10.3569 5.64314C10.9821 6.26826 11.3333 7.11611 11.3333 8.00016C11.3333 8.88422 10.9821 9.73206 10.3569 10.3572C9.73182 10.9823 8.88397 11.3335 7.99992 11.3335C7.11586 11.3335 6.26802 10.9823 5.6429 10.3572C5.01777 9.73206 4.66659 8.88422 4.66659 8.00016C4.66659 7.11611 5.01777 6.26826 5.6429 5.64314C6.26802 5.01802 7.11586 4.66683 7.99992 4.66683V4.66683ZM12.3333 4.50016C12.3333 4.72118 12.2455 4.93314 12.0892 5.08942C11.9329 5.2457 11.7209 5.3335 11.4999 5.3335C11.2789 5.3335 11.0669 5.2457 10.9107 5.08942C10.7544 4.93314 10.6666 4.72118 10.6666 4.50016C10.6666 4.27915 10.7544 4.06719 10.9107 3.91091C11.0669 3.75463 11.2789 3.66683 11.4999 3.66683C11.7209 3.66683 11.9329 3.75463 12.0892 3.91091C12.2455 4.06719 12.3333 4.27915 12.3333 4.50016V4.50016ZM7.99992 2.66683C6.35059 2.66683 6.08125 2.6715 5.31392 2.7055C4.79125 2.73016 4.44059 2.80016 4.11525 2.92683C3.82592 3.03883 3.61725 3.17283 3.39525 3.3955C3.18659 3.5971 3.02615 3.84322 2.92592 4.1155C2.79925 4.44216 2.72925 4.79216 2.70525 5.31416C2.67059 6.05016 2.66659 6.3075 2.66659 8.00016C2.66659 9.6495 2.67125 9.91883 2.70525 10.6862C2.72992 11.2082 2.79992 11.5595 2.92592 11.8842C3.03925 12.1742 3.17259 12.3828 3.39392 12.6042C3.61859 12.8282 3.82725 12.9622 4.11392 13.0728C4.44325 13.2002 4.79392 13.2708 5.31392 13.2948C6.04992 13.3295 6.30725 13.3335 7.99992 13.3335C9.64925 13.3335 9.91858 13.3288 10.6859 13.2948C11.2073 13.2702 11.5586 13.2002 11.8839 13.0742C12.1726 12.9615 12.3826 12.8275 12.6039 12.6062C12.8286 12.3815 12.9626 12.1728 13.0733 11.8862C13.1999 11.5575 13.2706 11.2062 13.2946 10.6862C13.3293 9.95016 13.3333 9.69283 13.3333 8.00016C13.3333 6.35083 13.3286 6.0815 13.2946 5.31416C13.2699 4.79283 13.1999 4.44083 13.0733 4.1155C12.9728 3.8435 12.8126 3.59747 12.6046 3.3955C12.4031 3.18673 12.1569 3.02627 11.8846 2.92616C11.5579 2.7995 11.2073 2.7295 10.6859 2.7055C9.94992 2.67083 9.69258 2.66683 7.99992 2.66683ZM7.99992 1.3335C9.81125 1.3335 10.0373 1.34016 10.7479 1.3735C11.4579 1.40683 11.9413 1.51816 12.3666 1.6835C12.8066 1.85283 13.1773 2.08216 13.5479 2.45216C13.8869 2.78543 14.1492 3.18856 14.3166 3.6335C14.4813 4.05816 14.5933 4.54216 14.6266 5.25216C14.6579 5.96283 14.6666 6.18883 14.6666 8.00016C14.6666 9.8115 14.6599 10.0375 14.6266 10.7482C14.5933 11.4582 14.4813 11.9415 14.3166 12.3668C14.1497 12.812 13.8873 13.2152 13.5479 13.5482C13.2146 13.887 12.8115 14.1493 12.3666 14.3168C11.9419 14.4815 11.4579 14.5935 10.7479 14.6268C10.0373 14.6582 9.81125 14.6668 7.99992 14.6668C6.18858 14.6668 5.96258 14.6602 5.25192 14.6268C4.54192 14.5935 4.05859 14.4815 3.63325 14.3168C3.18814 14.1498 2.78494 13.8875 2.45192 13.5482C2.11286 13.215 1.85054 12.8118 1.68325 12.3668C1.51792 11.9422 1.40659 11.4582 1.37325 10.7482C1.34192 10.0375 1.33325 9.8115 1.33325 8.00016C1.33325 6.18883 1.33992 5.96283 1.37325 5.25216C1.40659 4.5415 1.51792 4.05883 1.68325 3.6335C1.85008 3.18828 2.11245 2.78504 2.45192 2.45216C2.78503 2.11298 3.1882 1.85065 3.63325 1.6835C4.05859 1.51816 4.54125 1.40683 5.25192 1.3735C5.96258 1.34216 6.18858 1.3335 7.99992 1.3335Z" fill="#FA7436"/>
</g>
<defs>
<clipPath id="clip0_203_1121">
<rect width="16" height="16" fill="white"/>
</clipPath>
</defs>
</svg>
