<svg width="20" height="20"  viewBox="0 0 16 16" fill="none" xmlns="http://www.w3.org/2000/svg">
<g clip-path="url(#clip0_203_1124)">
<path d="M10.1999 3.69991C9.69324 3.69983 9.20677 3.89866 8.8452 4.25362C8.48363 4.60859 8.27586 5.09131 8.2666 5.59791L8.24793 6.64791C8.24684 6.70429 8.23384 6.7598 8.20979 6.8108C8.18573 6.86179 8.15117 6.90713 8.10836 6.94383C8.06555 6.98053 8.01547 7.00777 7.96139 7.02375C7.90732 7.03974 7.85048 7.04411 7.7946 7.03658L6.75393 6.89525C5.3846 6.70858 4.0726 6.07791 2.81393 5.02925C2.41527 7.23591 3.19393 8.76458 5.06926 9.94391L6.23393 10.6759C6.28927 10.7107 6.33524 10.7585 6.36783 10.8151C6.40042 10.8718 6.41862 10.9356 6.42086 11.0009C6.4231 11.0662 6.4093 11.1311 6.38066 11.1898C6.35202 11.2486 6.30943 11.2994 6.2566 11.3379L5.19526 12.1132C5.8266 12.1526 6.42593 12.1246 6.92326 12.0259C10.0686 11.3979 12.1599 9.03125 12.1599 5.12725C12.1599 4.80858 11.4853 3.69991 10.1999 3.69991V3.69991ZM6.93326 5.57325C6.9449 4.93061 7.14586 4.30569 7.51097 3.77673C7.87608 3.24776 8.38913 2.83826 8.98587 2.59949C9.58262 2.36072 10.2365 2.3033 10.8658 2.43441C11.495 2.56552 12.0715 2.87934 12.5233 3.33658C12.9973 3.33325 13.4006 3.45325 14.3026 2.90658C14.0793 3.99991 13.9693 4.47458 13.4933 5.12725C13.4933 10.2219 10.3619 12.6992 7.1846 13.3332C5.00593 13.7679 1.83793 13.0539 0.929932 12.1059C1.3926 12.0699 3.2726 11.8679 4.35926 11.0726C3.43993 10.4666 -0.219402 8.31325 2.18526 2.52391C3.31393 3.84191 4.4586 4.73925 5.6186 5.21525C6.3906 5.53191 6.57993 5.52525 6.93393 5.57391L6.93326 5.57325Z" fill="#FA7436"/>
</g>
<defs>
<clipPath id="clip0_203_1124">
<rect width="16" height="16" fill="white"/>
</clipPath>
</defs>
</svg>
