<svg width="16" height="16" viewBox="0 0 16 16" fill="none" xmlns="http://www.w3.org/2000/svg">
<g clip-path="url(#clip0_203_1118)">
<path d="M13.0706 4.66317C13.0199 4.4645 12.8759 4.3145 12.7113 4.2685C12.4199 4.1865 10.9999 3.99984 7.99992 3.99984C4.99992 3.99984 3.58125 4.1865 3.28725 4.2685C3.12459 4.31384 2.98059 4.46384 2.92925 4.66317C2.85659 4.94584 2.66659 6.1305 2.66659 7.99984C2.66659 9.86917 2.85659 11.0532 2.92925 11.3372C2.97992 11.5352 3.12392 11.6852 3.28792 11.7305C3.58125 11.8132 4.99992 11.9998 7.99992 11.9998C10.9999 11.9998 12.4193 11.8132 12.7126 11.7312C12.8753 11.6858 13.0193 11.5358 13.0706 11.3365C13.1433 11.0538 13.3333 9.8665 13.3333 7.99984C13.3333 6.13317 13.1433 4.9465 13.0706 4.66317ZM14.3619 4.33184C14.6666 5.51984 14.6666 7.99984 14.6666 7.99984C14.6666 7.99984 14.6666 10.4798 14.3619 11.6678C14.1926 12.3245 13.6973 12.8412 13.0699 13.0158C11.9306 13.3332 7.99992 13.3332 7.99992 13.3332C7.99992 13.3332 4.07125 13.3332 2.92992 13.0158C2.29992 12.8385 1.80525 12.3225 1.63792 11.6678C1.33325 10.4798 1.33325 7.99984 1.33325 7.99984C1.33325 7.99984 1.33325 5.51984 1.63792 4.33184C1.80725 3.67517 2.30259 3.1585 2.92992 2.98384C4.07125 2.6665 7.99992 2.6665 7.99992 2.6665C7.99992 2.6665 11.9306 2.6665 13.0699 2.98384C13.6999 3.16117 14.1946 3.67717 14.3619 4.33184V4.33184ZM6.66658 10.3332V5.6665L10.6666 7.99984L6.66658 10.3332Z" fill="#FA7436"/>
</g>
<defs>
<clipPath id="clip0_203_1118">
<rect width="16" height="16" fill="white"/>
</clipPath>
</defs>
</svg>
